<?xml version="1.0" encoding="iso-8859-1"?>
<!-- Generator: Adobe Illustrator 19.0.0, SVG Export Plug-In . SVG Version: 6.00 Build 0)  -->
<svg version="1.1" id="Layer_1" xmlns="http://www.w3.org/2000/svg" xmlns:xlink="http://www.w3.org/1999/xlink" x="0px" y="0px"
	 viewBox="0 0 512 512" style="enable-background:new 0 0 512 512;" xml:space="preserve">
<g>
	<g>
		<path d="M474.416,139.772c-0.042-0.159-0.028-0.309-0.076-0.464c-0.076-0.233-0.114-0.466-0.206-0.692
			c-0.065-0.159-0.127-0.31-0.199-0.465c-0.102-0.212-0.192-0.424-0.31-0.627c-0.086-0.153-0.181-0.297-0.275-0.444
			c-0.125-0.193-0.25-0.387-0.389-0.57c-0.109-0.144-0.224-0.279-0.34-0.416c-0.146-0.173-0.294-0.343-0.456-0.506
			c-0.127-0.132-0.264-0.256-0.403-0.381c-0.164-0.15-0.333-0.296-0.512-0.436c-0.151-0.117-0.303-0.227-0.461-0.336
			c-0.1-0.069-0.188-0.146-0.289-0.211l-104.296-66.37L261.907,1.483c-3.107-1.977-7.074-1.977-10.181,0L147.43,67.853
			l-104.296,66.37c-0.102,0.065-0.19,0.142-0.289,0.211c-0.157,0.109-0.31,0.219-0.461,0.336c-0.178,0.14-0.347,0.286-0.514,0.436
			c-0.137,0.125-0.273,0.249-0.403,0.381c-0.16,0.162-0.308,0.332-0.454,0.505c-0.118,0.138-0.236,0.274-0.342,0.418
			c-0.141,0.183-0.266,0.375-0.391,0.567c-0.095,0.148-0.194,0.294-0.282,0.447c-0.116,0.204-0.215,0.416-0.315,0.627
			c-0.074,0.155-0.155,0.307-0.22,0.465c-0.093,0.226-0.167,0.46-0.243,0.692c-0.049,0.155-0.109,0.306-0.151,0.464
			c-0.069,0.262-0.116,0.53-0.164,0.797c-0.023,0.138-0.653,0.271-0.671,0.409c-0.053,0.41-0.676,0.825-0.676,1.244V256v113.778
			c0,3.242,2.248,6.259,4.984,7.999l104.593,66.37l104.444,66.37c0.081,0.052,0.246,0.088,0.329,0.138
			c0.093,0.056,0.215,0.123,0.31,0.175c0.125,0.068,0.275,0.118,0.405,0.181c0.16,0.08,0.331,0.159,0.495,0.228
			c0.236,0.101,0.481,0.184,0.722,0.264c0.162,0.053,0.324,0.112,0.486,0.156c0.271,0.074,0.546,0.126,0.819,0.175
			c0.139,0.025,0.278,0.06,0.417,0.079c0.417,0.055,0.836,0.088,1.255,0.088s0.838-0.032,1.255-0.088
			c0.139-0.018,0.275-0.053,0.414-0.079c0.273-0.049,0.549-0.101,0.817-0.175c0.164-0.044,0.324-0.103,0.486-0.156
			c0.241-0.08,0.481-0.163,0.717-0.264c0.164-0.069,0.326-0.148,0.486-0.228c0.13-0.062,0.262-0.112,0.387-0.181
			c0.095-0.052,0.181-0.119,0.273-0.175c0.083-0.05,0.174-0.086,0.255-0.138l104.296-66.37l103.704-66.37
			c2.736-1.74,3.799-4.757,3.799-7.999V256V142.222c0-0.42,0.563-0.835,0.509-1.244c-0.018-0.137,0.241-0.267,0.218-0.402
			C474.386,140.307,474.488,140.036,474.416,139.772z M256.817,20.72l86.637,55.132l-21.66,13.783l-64.977,41.349L191.84,89.635
			l-21.66-13.783L256.817,20.72z M141.854,418.876L56.52,364.573v-91.301l85.333,54.303V418.876z M141.854,305.098L56.52,250.795
			v-91.301l85.333,54.303V305.098z M87.543,156.006l-21.66-13.783L152.52,87.09l64.977,41.348l21.66,13.784l-21.66,13.783
			l-64.977,41.349L87.543,156.006z M246.15,159.494v91.301l-85.333,54.303v-91.301L246.15,159.494z M246.15,485.247l-85.333-54.303
			v-91.301l85.333,54.303V485.247z M256.817,377.502L170.18,322.37l86.637-55.132l86.637,55.132L256.817,377.502z M350.446,430.943
			l-85.333,54.303v-91.301l85.333-54.303V430.943z M350.446,305.098l-85.333-54.303v-91.301l85.333,54.303V305.098z
			 M361.113,197.354l-64.977-41.349l-21.66-13.783l21.66-13.783l64.977-41.349l86.637,55.132l-21.66,13.783L361.113,197.354z
			 M454.742,364.573l-85.333,54.303v-91.301l85.333-54.303V364.573z M454.742,250.795l-85.333,54.303v-91.301l85.333-54.303V250.795
			z"/>
	</g>
</g>
<g>
</g>
<g>
</g>
<g>
</g>
<g>
</g>
<g>
</g>
<g>
</g>
<g>
</g>
<g>
</g>
<g>
</g>
<g>
</g>
<g>
</g>
<g>
</g>
<g>
</g>
<g>
</g>
<g>
</g>
</svg>
