<?xml version="1.0" encoding="iso-8859-1"?>
<!-- Generator: Adobe Illustrator 18.0.0, SVG Export Plug-In . SVG Version: 6.00 Build 0)  -->
<!DOCTYPE svg PUBLIC "-//W3C//DTD SVG 1.1//EN" "http://www.w3.org/Graphics/SVG/1.1/DTD/svg11.dtd">
<svg version="1.1" id="Capa_1" xmlns="http://www.w3.org/2000/svg" xmlns:xlink="http://www.w3.org/1999/xlink" x="0px" y="0px"
	 viewBox="0 0 337.699 337.699" style="enable-background:new 0 0 337.699 337.699;" xml:space="preserve">
<g>
	<g>
		<path d="M277.092,113.455c-0.429-0.227-0.881-0.397-1.342-0.537c0.944-2.461,1.466-5.129,1.466-7.918
			c0-12.238-9.956-22.195-22.194-22.195h-0.851V57.326c0-13.941-11.342-25.283-25.284-25.283h-4.037
			c-13.551,0-24.643,10.715-25.255,24.117c-51.842,8.156-81.508,31.863-96.493,48.567c-6.909-4.018-15.07-6.108-24.084-6.108
			c-18.811,0-38.603,9.004-54.302,24.703C11.809,136.23,3.308,152.123,0.781,168.078c-2.667,16.834,1.543,31.785,11.856,42.098
			c8.259,8.26,19.515,12.625,32.551,12.625c18.811,0,38.603-9.004,54.303-24.703c12.907-12.906,21.407-28.801,23.934-44.756
			c2.398-15.141-0.784-28.746-8.948-38.836c13.247-14.689,39.338-35.377,85.087-43.131v11.43h-0.852
			c-12.237,0-22.193,9.957-22.193,22.195c0,2.789,0.522,5.457,1.465,7.918c-0.461,0.141-0.913,0.311-1.343,0.537
			c-37.383,19.773-60.606,59.109-60.606,102.654c0,33.525,13.984,43.773,33.338,57.955c1.931,1.416,3.899,2.858,5.922,4.373
			c-1.11,3.264-1.581,6.629-1.581,8.887c0,10.109,8.224,18.332,18.332,18.332h109.639c10.108,0,18.332-8.223,18.332-18.332
			c0-2.258-0.471-5.623-1.582-8.889c2.024-1.514,3.991-2.955,5.922-4.371c19.354-14.182,33.338-24.43,33.338-57.955
			C337.699,172.564,314.476,133.228,277.092,113.455z M108.611,150.996c-2.035,12.85-9.04,25.811-19.725,36.494
			c-12.718,12.719-29.053,20.311-43.697,20.311c-8.971,0-16.56-2.846-21.945-8.232c-6.828-6.826-9.543-17.178-7.648-29.145
			c2.036-12.85,9.041-25.81,19.727-36.496c12.717-12.717,29.052-20.309,43.695-20.309c8.971,0,16.56,2.846,21.945,8.233
			C107.791,128.678,110.507,139.029,108.611,150.996z M294.763,145.377h-60.395v-17.791h37.319
			C280.339,132.373,288.078,138.394,294.763,145.377z M214.565,57.326c0-5.67,4.614-10.283,10.285-10.283h4.037
			c5.671,0,10.284,4.613,10.284,10.283v25.478h-24.606V57.326z M198.714,97.805h56.309c3.967,0,7.194,3.229,7.194,7.195
			c0,3.967-3.227,7.195-7.194,7.195h-56.309c-3.966,0-7.193-3.229-7.193-7.195C191.52,101.033,194.747,97.805,198.714,97.805z
			 M182.048,127.586h37.32v17.791h-60.396C165.658,138.394,173.397,132.373,182.048,127.586z M281.688,290.656H172.049
			c-1.837,0-3.332-1.494-3.332-3.332c0-0.977,0.258-2.311,0.59-3.463H284.43c0.332,1.152,0.59,2.486,0.59,3.463
			C285.02,289.162,283.525,290.656,281.688,290.656z M295.494,261.965c-2.959,2.17-6.013,4.414-9.252,6.896H167.493
			c-3.239-2.482-6.292-4.727-9.251-6.895c-18.113-13.273-27.205-19.936-27.205-45.857c0-20.33,5.79-39.586,16.141-55.732h159.38
			c10.351,16.146,16.141,35.402,16.141,55.732C322.699,242.031,313.607,248.693,295.494,261.965z"/>
		<path d="M226.87,57.418c-1.98,0-3.91,0.801-5.31,2.201c-1.39,1.4-2.19,3.33-2.19,5.299c0,1.98,0.8,3.91,2.19,5.311
			c1.4,1.391,3.33,2.189,5.31,2.189c1.97,0,3.9-0.799,5.3-2.189c1.4-1.4,2.2-3.33,2.2-5.311c0-1.969-0.8-3.899-2.2-5.299
			C230.78,58.219,228.84,57.418,226.87,57.418z"/>
	</g>
</g>
<g>
</g>
<g>
</g>
<g>
</g>
<g>
</g>
<g>
</g>
<g>
</g>
<g>
</g>
<g>
</g>
<g>
</g>
<g>
</g>
<g>
</g>
<g>
</g>
<g>
</g>
<g>
</g>
<g>
</g>
</svg>
