<?xml version="1.0" encoding="iso-8859-1"?>
<!-- Generator: Adobe Illustrator 19.0.0, SVG Export Plug-In . SVG Version: 6.00 Build 0)  -->
<svg version="1.1" id="Layer_1" xmlns="http://www.w3.org/2000/svg" xmlns:xlink="http://www.w3.org/1999/xlink" x="0px" y="0px"
	 viewBox="0 0 512 512" style="enable-background:new 0 0 512 512;" xml:space="preserve">
<g>
	<g>
		<path d="M503.83,0H8.17C3.658,0,0,3.657,0,8.17v495.66c0,4.513,3.658,8.17,8.17,8.17h299.574c1.143,0,2.23-0.236,3.217-0.66
			c0.258-0.112,0.492-0.227,0.72-0.352c0.062-0.034,0.12-0.074,0.18-0.109c0.169-0.099,0.337-0.199,0.498-0.309
			c0.087-0.06,0.17-0.126,0.255-0.191c0.13-0.096,0.259-0.192,0.382-0.295c0.09-0.076,0.175-0.159,0.263-0.239
			c0.111-0.102,0.223-0.204,0.329-0.312c0.023-0.024,0.049-0.045,0.072-0.069l101.336-106.401h1.685c4.512,0,8.17-3.657,8.17-8.17
			c0-0.958-0.173-1.873-0.476-2.726c0.306-0.867,0.476-1.784,0.476-2.721V16.34h27.234v70.808h-2.723c-4.512,0-8.17,3.657-8.17,8.17
			s3.658,8.17,8.17,8.17h2.723v392.17h-98.123c-4.512,0-8.17,3.657-8.17,8.17s3.658,8.17,8.17,8.17h106.293
			c4.512,0,8.17-3.657,8.17-8.17V16.34h27.234v70.808h-2.723c-4.512,0-8.17,3.657-8.17,8.17s3.658,8.17,8.17,8.17h2.723v392.17
			h-2.723c-4.512,0-8.17,3.657-8.17,8.17s3.658,8.17,8.17,8.17h10.894c4.512,0,8.17-3.657,8.17-8.17V8.17
			C512,3.657,508.342,0,503.83,0z M315.915,483.404v-80.34h76.515L315.915,483.404z M408.511,386.179l-0.519,0.545H307.745
			c-4.512,0-8.17,3.657-8.17,8.17V495.66H16.34v-392.17h392.17V386.179z M408.511,87.149H16.34V16.34h392.17V87.149z"/>
	</g>
</g>
<g>
</g>
<g>
</g>
<g>
</g>
<g>
</g>
<g>
</g>
<g>
</g>
<g>
</g>
<g>
</g>
<g>
</g>
<g>
</g>
<g>
</g>
<g>
</g>
<g>
</g>
<g>
</g>
<g>
</g>
</svg>
