<?xml version="1.0" encoding="iso-8859-1"?>
<!-- Generator: Adobe Illustrator 18.1.1, SVG Export Plug-In . SVG Version: 6.00 Build 0)  -->
<svg version="1.1" id="Capa_1" xmlns="http://www.w3.org/2000/svg" xmlns:xlink="http://www.w3.org/1999/xlink" x="0px" y="0px"
	 viewBox="0 0 89.471 89.471" style="enable-background:new 0 0 89.471 89.471;" xml:space="preserve">
<g>
	<path style="fill:#010002;" d="M41.25,36.608h-6.535l3.267-9.888L41.25,36.608z M89.471,14.315v60.84
		c0,7.906-6.41,14.315-14.315,14.315h-60.84c-0.122,0-0.236-0.032-0.358-0.036v-5.519h-2.863v5.161C4.746,87.61,0,81.949,0,75.152
		v-60.84C0,7.519,4.746,1.857,11.094,0.39v5.161h2.863V0.036C14.079,0.032,14.194,0,14.315,0h60.84
		C83.062,0,89.471,6.41,89.471,14.315z M13.958,69.669h-2.863v7.122h2.863V69.669z M13.958,55.415h-2.863v7.129h2.863V55.415z
		 M13.958,41.175h-2.863v7.122h2.863V41.175z M13.958,26.927h-2.863v7.122h2.863V26.927z M13.958,12.683h-2.863v7.122h2.863V12.683z
		 M26.365,45.849h2.666h2.645l1.614-5.007h9.337l1.664,5.007h2.724h2.731l-8.715-24.615H38.05h-2.978L26.365,45.849z M78.377,66.445
		h-53.16v3.579h53.16V66.445z M78.377,51.754h-53.16v3.579h53.16V51.754z M78.377,37.048H53.493v3.579h24.884V37.048z M78.377,22.35
		H53.493v3.579h24.884V22.35z"/>
</g>
<g>
</g>
<g>
</g>
<g>
</g>
<g>
</g>
<g>
</g>
<g>
</g>
<g>
</g>
<g>
</g>
<g>
</g>
<g>
</g>
<g>
</g>
<g>
</g>
<g>
</g>
<g>
</g>
<g>
</g>
</svg>
