<?xml version="1.0" encoding="iso-8859-1"?>
<!-- Generator: Adobe Illustrator 19.0.0, SVG Export Plug-In . SVG Version: 6.00 Build 0)  -->
<svg version="1.1" id="Layer_1" xmlns="http://www.w3.org/2000/svg" xmlns:xlink="http://www.w3.org/1999/xlink" x="0px" y="0px"
	 viewBox="0 0 512 512" style="enable-background:new 0 0 512 512;" xml:space="preserve">
<g>
	<g>
		<path d="M503.467,119.466H8.533c-4.71,0-8.533,3.823-8.533,8.533v76.8c0,4.71,3.823,8.533,8.533,8.533h346.334l-62.234,62.234
			c-2.995,2.995-3.337,7.723-0.811,11.127c2.526,3.388,7.168,4.429,10.889,2.423c24.252-13.03,68.531-30.208,84.147-20.89
			c2.33,1.399,5.402,4.181,5.658,12.279c-12.979,47.258-12.646,78.959,0.99,96.905c7.706,10.138,19.55,15.377,34.21,15.113
			c18.424-0.333,33.084-15.701,33.084-34.125V213.333h42.667c4.71,0,8.533-3.823,8.533-8.533v-76.8
			C512,123.289,508.177,119.466,503.467,119.466z M443.733,358.4c0,9.361-7.603,17.041-16.964,17.067
			c-8.934,0.017-15.369-2.722-19.678-8.38c-6.699-8.823-11.844-29.329,0.521-76.954h36.122V358.4z M443.733,273.066h-34.927
			c-2.108-10.65-8.047-16.418-13.201-19.49c-14.652-8.755-38.485-4.395-59.401,2.551l59.861-59.861H409.6V230.4
			c0,4.71,3.823,8.533,8.533,8.533s8.533-3.823,8.533-8.533v-34.133h17.067V273.066z M494.933,196.266H460.8v-8.533
			c0-4.71-3.823-8.533-8.533-8.533h-59.733c-2.261,0-4.437,0.896-6.033,2.5l-14.566,14.566H17.067v-59.733h17.067v17.067
			c0,4.71,3.823,8.533,8.533,8.533c4.71,0,8.533-3.823,8.533-8.533v-17.067h25.6v8.533c0,4.71,3.823,8.533,8.533,8.533
			c4.71,0,8.533-3.823,8.533-8.533v-8.533h25.6v17.067c0,4.71,3.823,8.533,8.533,8.533s8.533-3.823,8.533-8.533v-17.067h25.6v8.533
			c0,4.71,3.823,8.533,8.533,8.533s8.533-3.823,8.533-8.533v-8.533h25.6v17.067c0,4.71,3.823,8.533,8.533,8.533
			c4.71,0,8.533-3.823,8.533-8.533v-17.067h25.6v8.533c0,4.71,3.823,8.533,8.533,8.533s8.533-3.823,8.533-8.533v-8.533h25.6v17.067
			c0,4.71,3.823,8.533,8.533,8.533s8.533-3.823,8.533-8.533v-17.067h25.6v8.533c0,4.71,3.823,8.533,8.533,8.533
			s8.533-3.823,8.533-8.533v-8.533h25.6v17.067c0,4.71,3.823,8.533,8.533,8.533s8.533-3.823,8.533-8.533v-17.067h25.6v8.533
			c0,4.71,3.823,8.533,8.533,8.533s8.533-3.823,8.533-8.533v-8.533h25.6v17.067c0,4.71,3.823,8.533,8.533,8.533
			s8.533-3.823,8.533-8.533v-17.067h17.067V196.266z"/>
	</g>
</g>
<g>
</g>
<g>
</g>
<g>
</g>
<g>
</g>
<g>
</g>
<g>
</g>
<g>
</g>
<g>
</g>
<g>
</g>
<g>
</g>
<g>
</g>
<g>
</g>
<g>
</g>
<g>
</g>
<g>
</g>
</svg>
