<?xml version="1.0" encoding="iso-8859-1"?>
<!-- Generator: Adobe Illustrator 19.0.0, SVG Export Plug-In . SVG Version: 6.00 Build 0)  -->
<svg version="1.1" id="Layer_1" xmlns="http://www.w3.org/2000/svg" xmlns:xlink="http://www.w3.org/1999/xlink" x="0px" y="0px"
	 viewBox="0 0 512.06 512.06" style="enable-background:new 0 0 512.06 512.06;" xml:space="preserve">
<g>
	<g>
		<g>
			<path d="M445.713,409.882l-145.254-34.193c-0.051-0.008-0.102-0.017-0.154-0.034c-38.093-13.107-66.458-46.379-85.274-68.454
				c-4.949-5.794-9.216-10.803-12.868-14.49c-9.242-9.31-22.699-10.778-32.734-3.567c-9.66,6.938-12.373,19.157-6.75,30.404
				c0.205,0.41,0.435,0.794,0.7,1.161c1.801,2.509,44.689,61.747,97.178,87.987c4.224,2.116,9.344,0.393,11.452-3.814
				c2.108-4.215,0.393-9.344-3.823-11.452c-46.003-22.997-85.939-75.895-90.513-82.082c-2.142-4.864,0.452-7.441,1.715-8.337
				c2.415-1.741,6.639-2.313,10.658,1.724c3.2,3.226,7.279,8.004,11.998,13.542c18.961,22.246,50.697,59.477,93.756,73.873
				c0.555,0.188,1.118,0.316,1.69,0.384l144.205,33.937c36.344,9.079,53.265,25.429,53.265,51.456v17.067H218.633l-8.525-17.067
				h259.251c4.719,0,8.533-3.823,8.533-8.533s-3.814-8.533-8.533-8.533H17.092V346.701c23.185,10.018,74.325,24.687,131.866-6.391
				c4.147-2.236,5.692-7.415,3.456-11.563c-2.236-4.139-7.415-5.709-11.563-3.456c-67.797,36.608-125.363,1.818-127.761,0.341
				c-2.62-1.655-5.956-1.749-8.661-0.239c-2.714,1.502-4.395,4.361-4.395,7.467v170.667c0,4.71,3.814,8.533,8.525,8.533h170.667
				c3.234,0,6.195-1.826,7.637-4.719l9.429-18.867l9.429,18.867c1.451,2.893,4.403,4.719,7.637,4.719h290.133
				c4.719,0,8.533-3.823,8.533-8.533v-25.6C512.026,443.776,489.762,420.898,445.713,409.882z M173.952,494.993H17.092v-17.067
				h165.393L173.952,494.993z"/>
			<path d="M110.959,221.867h187.733c86.195,0,145.161-18.236,148.105-19.174c43.29-16.486,65.229-47.36,65.229-91.759
				c0-44.783-21.965-75.665-65.724-91.93C443.81,18.227,384.341,0,298.692,0H110.959C49.792,0,0.034,49.758,0.034,110.933
				C0.034,172.1,49.792,221.867,110.959,221.867z M110.959,17.067h187.733c82.884,0,141.952,18.048,142.097,18.082
				c36.454,13.568,54.17,38.349,54.17,75.785c0,37.111-17.741,61.901-53.751,75.639c-0.58,0.188-59.119,18.227-142.515,18.227
				H110.959c-51.755,0-93.867-42.112-93.867-93.867C17.092,59.179,59.204,17.067,110.959,17.067z"/>
			<path d="M110.959,187.733h204.8c4.719,0,8.533-3.823,8.533-8.533s-3.814-8.533-8.533-8.533h-76.8
				c-9.412,0-17.067-7.654-17.067-17.067V68.267c0-9.412,7.654-17.067,17.067-17.067h76.8c4.719,0,8.533-3.823,8.533-8.533
				c0-4.71-3.814-8.533-8.533-8.533h-204.8c-43.059,0-76.8,33.732-76.8,76.8S67.9,187.733,110.959,187.733z M110.959,51.2h98.62
				c-2.944,5.043-4.753,10.82-4.753,17.067V153.6c0,6.246,1.809,12.023,4.753,17.067h-98.62c-29.355,0-59.733-22.34-59.733-59.733
				C51.226,77.44,77.466,51.2,110.959,51.2z"/>
			<path d="M349.892,170.667c4.719,0,8.533-3.823,8.533-8.533v-102.4c0-4.71-3.814-8.533-8.533-8.533
				c-4.71,0-8.533,3.823-8.533,8.533v102.4C341.359,166.844,345.182,170.667,349.892,170.667z"/>
			<path d="M256.026,76.8v68.267c0,4.71,3.823,8.533,8.533,8.533c4.719,0,8.533-3.823,8.533-8.533V76.8
				c0-4.71-3.814-8.533-8.533-8.533C259.849,68.267,256.026,72.09,256.026,76.8z"/>
			<path d="M290.159,76.8v68.267c0,4.71,3.823,8.533,8.533,8.533c4.719,0,8.533-3.823,8.533-8.533V76.8
				c0-4.71-3.814-8.533-8.533-8.533C293.982,68.267,290.159,72.09,290.159,76.8z"/>
		</g>
	</g>
</g>
<g>
</g>
<g>
</g>
<g>
</g>
<g>
</g>
<g>
</g>
<g>
</g>
<g>
</g>
<g>
</g>
<g>
</g>
<g>
</g>
<g>
</g>
<g>
</g>
<g>
</g>
<g>
</g>
<g>
</g>
</svg>
