<?xml version="1.0" encoding="iso-8859-1"?>
<!-- Generator: Adobe Illustrator 18.0.0, SVG Export Plug-In . SVG Version: 6.00 Build 0)  -->
<!DOCTYPE svg PUBLIC "-//W3C//DTD SVG 1.1//EN" "http://www.w3.org/Graphics/SVG/1.1/DTD/svg11.dtd">
<svg version="1.1" id="Capa_1" xmlns="http://www.w3.org/2000/svg" xmlns:xlink="http://www.w3.org/1999/xlink" x="0px" y="0px"
	 viewBox="0 0 317.51 317.51" style="enable-background:new 0 0 317.51 317.51;" xml:space="preserve">
<g>
	<g>
		<g>
			<path d="M290.735,58.227c-0.001-0.098-0.013-0.184-0.018-0.277c0.063-4.201-0.362-8.441-1.34-12.666
				C283.213,18.621,257.021,0,225.685,0c-6.059,0-12.177,0.705-18.185,2.096c-22.362,5.172-39.543,18.399-48.748,36.291
				c-9.206-17.893-26.387-31.119-48.749-36.291C103.996,0.705,97.878,0,91.818,0C60.482,0,34.291,18.621,28.125,45.281
				c-0.968,4.188-1.396,8.389-1.344,12.553c-0.001,0.041-0.007,0.076-0.007,0.119c-0.363,54.232,17.592,102.977,32.614,131.67
				c11.439,21.852,22.865,37.32,28.888,44.854c-17.575,20.646-23.976,40.758-24.015,40.922c-4.22,17.668,19.52,33.113,45.151,39.236
				c7.979,1.906,15.833,2.875,23.008,2.875c4.339,0,8.429-0.355,12.148-1.068c6.432-1.234,10.973-3.348,14.184-5.746
				c3.21,2.398,7.752,4.512,14.184,5.746c3.719,0.715,7.808,1.068,12.146,1.068c7.175,0,15.03-0.969,23.008-2.875
				c25.632-6.123,49.372-21.568,45.152-39.236c-0.04-0.164-5.03-19.094-24.016-40.922c6.022-7.533,17.448-23.002,28.888-44.854
				C273.138,160.93,291.098,112.459,290.735,58.227z M272.957,42.982c0.745,1.83,1.355,3.725,1.807,5.68
				c5.656,24.457-13.798,49.918-43.367,56.758c-4.117,0.951-8.468,1.434-12.93,1.434c-0.001,0-0.002,0-0.003,0
				c-16.823,0-34.999-7.32-44.848-18.65C215.945,84.904,252.747,68.139,272.957,42.982z M210.88,16.709
				c4.901-1.133,9.882-1.709,14.805-1.709c15.47,0,29.259,5.609,38.43,14.791c-17.368,24.912-55.144,41.857-97.594,43.832
				c-0.169-1.148-0.269-2.311-0.269-3.492C166.252,50.248,177.94,24.328,210.88,16.709z M166.252,161.932l6.565,4.789l-6.565,4.791
				V161.932z M166.252,201.021l6.565,4.789l-6.565,4.791V201.021z M172.817,244.9l-6.565,4.791v-9.58L172.817,244.9z
				 M151.252,249.691l-6.566-4.791l6.566-4.789V249.691z M144.687,205.811l6.566-4.789v9.58L144.687,205.811z M144.576,166.641
				l6.676-4.869v9.74L144.576,166.641z M91.818,15c4.923,0,9.904,0.576,14.805,1.709c32.94,7.619,44.629,33.539,44.629,53.422
				c0,1.199-0.101,2.377-0.274,3.539c-42.342-1.73-80.497-18.521-98.211-43.248C61.929,20.867,75.997,15,91.818,15z M42.739,48.662
				c0.38-1.643,0.877-3.24,1.465-4.797c20.546,24.818,57.51,41.346,99.594,44.438c-9.868,11.273-27.984,18.551-44.758,18.551
				c-4.464,0-8.815-0.482-12.934-1.434C56.538,98.58,37.083,73.119,42.739,48.662z M141.74,301.711
				c-7.823,1.502-18.064,0.91-28.842-1.666c-23.991-5.73-34.566-17.082-34.082-20.967c0.655-3.512,7.598-20.863,24.845-39.32
				c2.655-2.842,2.694-7.246,0.094-10.139c-0.156-0.176-15.884-17.816-31.297-47.373c-10.479-20.098-22.407-48.945-27.733-83.293
				c9.677,9.955,22.761,17.555,38.002,21.08c5.225,1.209,10.713,1.82,16.313,1.82c16.161,0,32.688-5.125,45.343-14.063
				c2.5-1.766,4.777-3.648,6.869-5.615v30.086l-14.872-10.85c-3.347-2.441-8.038-1.707-10.479,1.641
				c-2.44,3.346-1.707,8.037,1.64,10.478l18.486,13.486l-18.486,13.486c-3.081,1.951-3.074,6.313-3.07,6.402
				c0.058,2.248,1.113,4.447,3.07,5.873l18.485,13.486l-18.485,13.486c-0.612,0.447-1.169,0.994-1.64,1.639
				c-2.44,3.346-1.707,8.039,1.64,10.479l18.485,13.486l-18.485,13.486c-0.612,0.447-1.169,0.994-1.64,1.639
				c-2.44,3.346-1.707,8.039,1.64,10.479l18.485,13.486l-18.485,13.486c-3.347,2.441-4.08,7.133-1.64,10.478
				c1.469,2.014,3.751,3.082,6.065,3.082c1.533,0,3.08-0.469,4.414-1.441l14.872-10.85v17.887
				C150.386,298.713,147.271,300.648,141.74,301.711z M213.752,229.615c-2.607,2.891-2.568,7.297,0.09,10.143
				c17.274,18.486,23.972,36.781,24.845,39.318c0.489,3.883-10.086,15.236-34.082,20.969c-10.776,2.576-21.02,3.168-28.841,1.666
				c-5.531-1.063-8.646-2.998-9.512-4.623v-17.887l14.872,10.85c1.333,0.973,2.88,1.441,4.413,1.441
				c2.314,0,4.598-1.068,6.066-3.082c2.441-3.346,1.708-8.037-1.639-10.478l-18.486-13.486l18.486-13.486l-0.007-0.008
				c0.613-0.447,1.175-0.984,1.646-1.631c2.441-3.346,1.708-8.037-1.639-10.479l-18.486-13.486c0,0,18.58-13.566,18.631-13.607
				c0.554-0.424,1.063-0.924,1.494-1.518c2.441-3.346,1.708-8.037-1.639-10.479l-18.486-13.486c0,0,16.736-11.393,20.125-15.125
				c2.784-3.066,1.708-8.037-1.639-10.479l-18.596-13.566l18.596-13.564c2.013-1.469,3.081-3.752,3.08-6.066
				c0-1.533-0.469-3.08-1.441-4.412c-2.441-3.348-7.133-4.084-10.479-1.639l-14.872,10.85v-30.068
				c2.09,1.961,4.375,3.834,6.869,5.596c12.654,8.936,29.181,14.063,45.342,14.063c0.001,0,0.002,0,0.004,0
				c5.598,0,11.086-0.611,16.31-1.82c15.241-3.525,28.326-11.125,38.003-21.08c-5.327,34.348-17.254,63.195-27.734,83.293
				C229.632,211.803,213.905,229.443,213.752,229.615z"/>
		</g>
	</g>
</g>
<g>
</g>
<g>
</g>
<g>
</g>
<g>
</g>
<g>
</g>
<g>
</g>
<g>
</g>
<g>
</g>
<g>
</g>
<g>
</g>
<g>
</g>
<g>
</g>
<g>
</g>
<g>
</g>
<g>
</g>
</svg>
